<?xml version="1.0" encoding="UTF-8"?>
<!-- Created with Inkscape (http://www.inkscape.org/) -->
<svg width="15" height="15" version="1.1" viewBox="0 0 3.9687 3.9688" xml:space="preserve" xmlns="http://www.w3.org/2000/svg"><rect x="-9.4369e-16" y="3.9209e-8" width="3.9688" height="3.9687" ry=".52917" fill="#fff" fill-rule="evenodd" stroke-width=".26458"/><rect x=".26458" y=".26458" width="3.4396" height="3.4396" ry=".26458" fill="#555" fill-rule="evenodd" stroke-width=".26458"/><path d="m1.3053 1.0142c-0.19403 0-0.19403 0.19403 0 0.19403h0.77611v0.19403c-0.053746 0-0.097014 0.043268-0.097014 0.097014v0.097014h-0.69237c-0.044141-0.17073-0.19779-0.29083-0.37478-0.29104-0.21432 0-0.38806 0.17373-0.38806 0.38806s0.17373 0.38806 0.38806 0.38806c0.072217-1.94e-4 0.14296-0.020528 0.20425-0.058732l0.47484 0.64082c0.19546 0.28144 0.54681 0.29104 0.6791 0.29104h0.97014s0.19403 0 0.19403-0.19403v-0.19288c0-0.14213-0.024448-0.21962-0.097014-0.29219l-0.58208-0.58208s-0.11479-0.097014-0.24708-0.097014h-0.14098v-0.097014c0-0.053746-0.043268-0.097014-0.097014-0.097014v-0.19403h0.77611c0.19403 0 0.19403-0.19403 0-0.19403zm-0.38806 0.48507c0.10716 0 0.19403 0.086866 0.19403 0.19403 0 0.10716-0.086866 0.19403-0.19403 0.19403-0.10716 0-0.19403-0.086866-0.19403-0.19403 0-0.10716 0.086866-0.19403 0.19403-0.19403zm1.5522 0.29104c0.097014 0 0.1532 0.06269 0.19403 0.097014l0.48507 0.48507h-0.6791s-0.19403 0-0.19403-0.19403v-0.19403s0-0.19403 0.19403-0.19403z" fill="#f9f9f9" stroke-width=".19403"/></svg>
