<?xml version="1.0" encoding="UTF-8"?>
<!-- Created with Inkscape (http://www.inkscape.org/) -->
<svg width="15" height="15" version="1.1" viewBox="0 0 3.9687 3.9688" xml:space="preserve" xmlns="http://www.w3.org/2000/svg"><rect x="-9.4369e-16" y="3.9209e-8" width="3.9688" height="3.9687" ry=".52917" fill="#fff" fill-rule="evenodd" stroke-width=".26458"/><rect x=".26458" y=".26458" width="3.4396" height="3.4396" ry=".26458" fill="#af7d27" fill-rule="evenodd" stroke-width=".26458"/><path d="m1.8521 0.66145h-0.39688c-0.13229 0-0.13229-0.13229 0-0.13229h1.0583c0.13229 0 0.13229 0.13229 0 0.13229h-0.39686s0.15875 0.11465 0.15875 0.37923v0.2646h1.1642v0.38806l-1.1642 0.38806-0.097014 0.97014 0.48507 0.25577v0.13229h-1.3582v-0.13229l0.48507-0.25577-0.097014-0.97014-1.1642-0.38806v-0.38806h1.1642v-0.26458c0-0.2646 0.15875-0.37925 0.15875-0.37925z" fill="#f9f9f9" stroke-width=".19403"/></svg>
