<?xml version="1.0" encoding="UTF-8"?>
<!-- Created with Inkscape (http://www.inkscape.org/) -->
<svg width="18" height="18" version="1.1" viewBox="0 0 4.7624 4.7626" xml:space="preserve" xmlns="http://www.w3.org/2000/svg"><g transform="matrix(2.4538 0 0 2.4538 1.3395 33.44)" fill-rule="evenodd" stroke-width=".10783" style="paint-order:stroke markers fill"><path d="m0.42383-12.814c-0.085772 0-0.15625 0.07048-0.15625 0.15625 7.1e-7 0.08577 0.070479 0.1582 0.15625 0.1582s0.15625-0.07243 0.15625-0.1582c1.3e-7 -0.08577-0.070478-0.15625-0.15625-0.15625zm0 0.10938c0.027498 0 0.048828 0.01938 0.048828 0.04687-2.3e-7 0.0275-0.02133 0.04883-0.048828 0.04883s-0.048828-0.02133-0.048828-0.04883c-4e-8 -0.0275 0.02133-0.04687 0.048828-0.04687z" color="#000000" fill="#fff" style="-inkscape-stroke:none"/><path d="m0.52708-12.657a0.10255 0.10255 0 0 1-0.10255 0.10255 0.10255 0.10255 0 0 1-0.10255-0.10255 0.10255 0.10255 0 0 1 0.10255-0.10255 0.10255 0.10255 0 0 1 0.10255 0.10255z" color="#000000" fill="#1a1a1a" style="-inkscape-stroke:none"/><g transform="matrix(0 .26459 -.26459 0 -12.233 -13.082)"><path d="m1.6055-51.205-0.10156 0.05859-2.8164 1.625v3.3672l2.918 1.6836 2.916-1.6836v-3.3672zm-0.00195 0.46875 0.00195 2e-3 -0.10156 0.05859-2.4082 1.3887v2.8984l2.5098 1.4473 2.5078-1.4492v-2.8965h0.00195v2.8984l-2.5098 1.4492-2.5098-1.4492h-0.0019499v-2.8984h0.001953zm0.00195 0.4707 2.1016 1.2129v2.4277l-2.1016 1.2148-2.1035-1.2129v-2.4297z" color="#000000" fill="#fff" style="-inkscape-stroke:none"/><path d="m1.6055-50.971-2.7148 1.5664v3.1328l2.7148 1.5664 2.7129-1.5664v-3.1328zm0 0.4707 2.3047 1.3301v2.6621l-2.3047 1.332-2.3066-1.3301v-2.6641z" color="#000000" fill="#1a1a1a" style="-inkscape-stroke:none"/></g></g></svg>
