<?xml version="1.0" encoding="UTF-8"?>
<!-- Created with Inkscape (http://www.inkscape.org/) -->
<svg width="32" height="32" version="1.1" viewBox="0 0 8.4666 8.4668" xml:space="preserve" xmlns="http://www.w3.org/2000/svg"><g transform="matrix(2.4538 0 0 2.4538 -1.0005 -.27596)" fill-rule="evenodd" stroke-width=".10783" style="paint-order:stroke markers fill"><path d="m2.1328 1.6816c-0.085772 0-0.15625 0.070478-0.15625 0.15625s0.070478 0.15625 0.15625 0.15625 0.15625-0.070478 0.15625-0.15625-0.070478-0.15625-0.15625-0.15625zm0 0.10742c0.027498 0 0.048828 0.02133 0.048828 0.048828s-0.02133 0.048828-0.048828 0.048828-0.048828-0.02133-0.048828-0.048828 0.02133-0.048828 0.048828-0.048828z" color="#000000" fill="#fff" style="-inkscape-stroke:none"/><path d="m2.2355 1.8377a0.10255 0.10255 0 0 1-0.10255 0.10255 0.10255 0.10255 0 0 1-0.10255-0.10255 0.10255 0.10255 0 0 1 0.10255-0.10255 0.10255 0.10255 0 0 1 0.10255 0.10255z" color="#000000" fill="#1a1a1a" style="-inkscape-stroke:none"/><g fill="#1a1a1a"><g transform="translate(0 -.0047416)"><path d="m2.1328 1.0332c-0.085772 0-0.15625 0.070478-0.15625 0.15625s0.070478 0.15625 0.15625 0.15625 0.15625-0.070478 0.15625-0.15625-0.070478-0.15625-0.15625-0.15625zm0 0.10742c0.027498 0 0.048828 0.02133 0.048828 0.048828s-0.02133 0.048828-0.048828 0.048828-0.048828-0.02133-0.048828-0.048828 0.02133-0.048828 0.048828-0.048828z" color="#000000" fill="#fff" style="-inkscape-stroke:none"/><path d="m2.2355 1.1895a0.10255 0.10255 0 0 1-0.10255 0.10255 0.10255 0.10255 0 0 1-0.10255-0.10255 0.10255 0.10255 0 0 1 0.10255-0.10255 0.10255 0.10255 0 0 1 0.10255 0.10255z" color="#000000" style="-inkscape-stroke:none"/><g transform="rotate(30)"><path d="m2.7676-0.2793c-0.085772 0-0.15625 0.070478-0.15625 0.15625 0 0.085772 0.070478 0.15625 0.15625 0.15625s0.1582-0.070478 0.1582-0.15625c0-0.085772-0.072431-0.15625-0.1582-0.15625zm0 0.10742c0.027498 0 0.048828 0.02133 0.048828 0.048828 0 0.027498-0.02133 0.048828-0.048828 0.048828s-0.046875-0.02133-0.046875-0.048828c0-0.027498 0.019377-0.048828 0.046875-0.048828z" color="#000000" fill="#fff" style="-inkscape-stroke:none"/><path d="m2.8709-0.12376a0.10255 0.10255 0 0 1-0.10255 0.10255 0.10255 0.10255 0 0 1-0.10255-0.10255 0.10255 0.10255 0 0 1 0.10255-0.10255 0.10255 0.10255 0 0 1 0.10255 0.10255z" color="#000000" style="-inkscape-stroke:none"/></g><g transform="rotate(60)"><path d="m2.6621-1.7344c-0.085772 0-0.15625 0.070478-0.15625 0.15625s0.070478 0.15625 0.15625 0.15625 0.15625-0.070478 0.15625-0.15625-0.070478-0.15625-0.15625-0.15625zm0 0.10742c0.027498 0 0.048828 0.02133 0.048828 0.048828s-0.02133 0.048828-0.048828 0.048828-0.048828-0.02133-0.048828-0.048828 0.02133-0.048828 0.048828-0.048828z" color="#000000" fill="#fff" style="-inkscape-stroke:none"/><path d="m2.7646-1.5788a0.10255 0.10255 0 0 1-0.10255 0.10255 0.10255 0.10255 0 0 1-0.10255-0.10255 0.10255 0.10255 0 0 1 0.10255-0.10255 0.10255 0.10255 0 0 1 0.10255 0.10255z" color="#000000" style="-inkscape-stroke:none"/></g><g transform="rotate(90)"><path d="m1.8418-2.9414c-0.085772 0-0.15625 0.070478-0.15625 0.15625s0.070478 0.15625 0.15625 0.15625 0.15625-0.070478 0.15625-0.15625-0.070478-0.15625-0.15625-0.15625zm0 0.10742c0.027498 0 0.048828 0.02133 0.048828 0.048828s-0.02133 0.048828-0.048828 0.048828-0.048828-0.02133-0.048828-0.048828 0.02133-0.048828 0.048828-0.048828z" color="#000000" fill="#fff" style="-inkscape-stroke:none"/><path d="m1.945-2.7858a0.10255 0.10255 0 0 1-0.10255 0.10255 0.10255 0.10255 0 0 1-0.10255-0.10255 0.10255 0.10255 0 0 1 0.10255-0.10255 0.10255 0.10255 0 0 1 0.10255 0.10255z" color="#000000" style="-inkscape-stroke:none"/></g><g transform="rotate(120)"><path d="m0.5293-3.5781c-0.085772 0-0.15625 0.070478-0.15625 0.15625s0.070478 0.15625 0.15625 0.15625c0.085772 0 0.15625-0.070478 0.15625-0.15625s-0.070478-0.15625-0.15625-0.15625zm0 0.10742c0.027498 0 0.048828 0.02133 0.048828 0.048828s-0.02133 0.048828-0.048828 0.048828-0.048828-0.02133-0.048828-0.048828 0.02133-0.048828 0.048828-0.048828z" color="#000000" fill="#fff" style="-inkscape-stroke:none"/><path d="m0.63167-3.4213a0.10255 0.10255 0 0 1-0.10255 0.10255 0.10255 0.10255 0 0 1-0.10255-0.10255 0.10255 0.10255 0 0 1 0.10255-0.10255 0.10255 0.10255 0 0 1 0.10255 0.10255z" color="#000000" style="-inkscape-stroke:none"/></g><g transform="rotate(150)"><path d="m-0.92578-3.4707c-0.085772 0-0.15625 0.070478-0.15625 0.15625s0.070478 0.15625 0.15625 0.15625c0.085772 0 0.15625-0.070478 0.15625-0.15625s-0.070478-0.15625-0.15625-0.15625zm0 0.10742c0.027498 0 0.048828 0.02133 0.048828 0.048828s-0.02133 0.048828-0.048828 0.048828-0.048828-0.02133-0.048828-0.048828 0.02133-0.048828 0.048828-0.048828z" color="#000000" fill="#fff" style="-inkscape-stroke:none"/><path d="m-0.82341-3.3149a0.10255 0.10255 0 0 1-0.10255 0.10255 0.10255 0.10255 0 0 1-0.10255-0.10255 0.10255 0.10255 0 0 1 0.10255-0.10255 0.10255 0.10255 0 0 1 0.10255 0.10255z" color="#000000" style="-inkscape-stroke:none"/></g><g transform="scale(-1)"><path d="m-2.1328-2.6523c-0.085772 0-0.15625 0.070478-0.15625 0.15625s0.070478 0.1582 0.15625 0.1582 0.15625-0.072431 0.15625-0.1582c0-0.085772-0.070478-0.15625-0.15625-0.15625zm0 0.10938c0.027498 0 0.048828 0.019377 0.048828 0.046875s-0.02133 0.048828-0.048828 0.048828-0.048828-0.02133-0.048828-0.048828 0.02133-0.046875 0.048828-0.046875z" color="#000000" fill="#fff" style="-inkscape-stroke:none"/><path d="m-2.0304-2.4953a0.10255 0.10255 0 0 1-0.10255 0.10255 0.10255 0.10255 0 0 1-0.10255-0.10255 0.10255 0.10255 0 0 1 0.10255-0.10255 0.10255 0.10255 0 0 1 0.10255 0.10255z" color="#000000" style="-inkscape-stroke:none"/></g><g transform="rotate(210)"><path d="m-2.7676-1.3379c-0.085772 0-0.1582 0.070478-0.1582 0.15625s0.072431 0.15625 0.1582 0.15625c0.085772 0 0.15625-0.070478 0.15625-0.15625s-0.070478-0.15625-0.15625-0.15625zm0 0.10742c0.027498 0 0.046875 0.02133 0.046875 0.048828s-0.019377 0.048828-0.046875 0.048828-0.048828-0.02133-0.048828-0.048828 0.02133-0.048828 0.048828-0.048828z" color="#000000" fill="#fff" style="-inkscape-stroke:none"/><path d="m-2.6658-1.182a0.10255 0.10255 0 0 1-0.10255 0.10255 0.10255 0.10255 0 0 1-0.10255-0.10255 0.10255 0.10255 0 0 1 0.10255-0.10255 0.10255 0.10255 0 0 1 0.10255 0.10255z" color="#000000" style="-inkscape-stroke:none"/></g><g transform="rotate(240)"><path d="m-2.6621 0.11719c-0.085772 0-0.15625 0.070478-0.15625 0.15625s0.070478 0.15625 0.15625 0.15625 0.15625-0.070478 0.15625-0.15625-0.070478-0.15625-0.15625-0.15625zm0 0.10742c0.027498 0 0.048828 0.02133 0.048828 0.048828s-0.02133 0.048828-0.048828 0.048828-0.048828-0.02133-0.048828-0.048828 0.02133-0.048828 0.048828-0.048828z" color="#000000" fill="#fff" style="-inkscape-stroke:none"/><path d="m-2.5595 0.27307a0.10255 0.10255 0 0 1-0.10255 0.10255 0.10255 0.10255 0 0 1-0.10255-0.10255 0.10255 0.10255 0 0 1 0.10255-0.10255 0.10255 0.10255 0 0 1 0.10255 0.10255z" color="#000000" style="-inkscape-stroke:none"/></g><g transform="rotate(-90)"><path d="m-1.8418 1.3242c-0.085772 0-0.15625 0.070478-0.15625 0.15625s0.070478 0.15625 0.15625 0.15625c0.085772 0 0.15625-0.070478 0.15625-0.15625s-0.070478-0.15625-0.15625-0.15625zm0 0.10742c0.027498 0 0.048828 0.02133 0.048828 0.048828s-0.02133 0.048828-0.048828 0.048828-0.048828-0.02133-0.048828-0.048828 0.02133-0.048828 0.048828-0.048828z" color="#000000" fill="#fff" style="-inkscape-stroke:none"/><path d="m-1.7399 1.48a0.10255 0.10255 0 0 1-0.10255 0.10255 0.10255 0.10255 0 0 1-0.10255-0.10255 0.10255 0.10255 0 0 1 0.10255-0.10255 0.10255 0.10255 0 0 1 0.10255 0.10255z" color="#000000" style="-inkscape-stroke:none"/></g><g transform="rotate(-60)"><path d="m-0.5293 1.959c-0.085772 0-0.15625 0.070478-0.15625 0.15625s0.070478 0.15625 0.15625 0.15625 0.15625-0.070478 0.15625-0.15625-0.070478-0.15625-0.15625-0.15625zm0 0.10742c0.027498 0 0.048828 0.02133 0.048828 0.048828s-0.02133 0.048828-0.048828 0.048828-0.048828-0.02133-0.048828-0.048828 0.02133-0.048828 0.048828-0.048828z" color="#000000" fill="#fff" style="-inkscape-stroke:none"/><path d="m-0.42658 2.1155a0.10255 0.10255 0 0 1-0.10255 0.10255 0.10255 0.10255 0 0 1-0.10255-0.10255 0.10255 0.10255 0 0 1 0.10255-0.10255 0.10255 0.10255 0 0 1 0.10255 0.10255z" color="#000000" style="-inkscape-stroke:none"/></g><g transform="rotate(-30)"><path d="m0.92578 1.8535c-0.085772 0-0.15625 0.070478-0.15625 0.15625s0.070478 0.15625 0.15625 0.15625 0.15625-0.070478 0.15625-0.15625-0.070478-0.15625-0.15625-0.15625zm0 0.10742c0.027498 0 0.048828 0.02133 0.048828 0.048828s-0.02133 0.048828-0.048828 0.048828-0.048828-0.02133-0.048828-0.048828 0.02133-0.048828 0.048828-0.048828z" color="#000000" fill="#fff" style="-inkscape-stroke:none"/><path d="m1.0285 2.0092a0.10255 0.10255 0 0 1-0.10255 0.10255 0.10255 0.10255 0 0 1-0.10255-0.10255 0.10255 0.10255 0 0 1 0.10255-0.10255 0.10255 0.10255 0 0 1 0.10255 0.10255z" color="#000000" style="-inkscape-stroke:none"/></g></g><g transform="translate(0 -.0063839)"><path d="m2.1328 0.75977c-0.085772 0-0.15625 0.070478-0.15625 0.15625 0 0.085772 0.070478 0.15625 0.15625 0.15625s0.15625-0.070478 0.15625-0.15625c0-0.085772-0.070478-0.15625-0.15625-0.15625zm0 0.10742c0.027498 0 0.048828 0.02133 0.048828 0.048828s-0.02133 0.048828-0.048828 0.048828-0.048828-0.02133-0.048828-0.048828 0.02133-0.048828 0.048828-0.048828z" color="#000000" fill="#fff" style="-inkscape-stroke:none"/><path d="m2.2355 0.91564a0.10255 0.10255 0 0 1-0.10255 0.10255 0.10255 0.10255 0 0 1-0.10255-0.10255 0.10255 0.10255 0 0 1 0.10255-0.10255 0.10255 0.10255 0 0 1 0.10255 0.10255z" color="#000000" style="-inkscape-stroke:none"/><g transform="rotate(22.5)"><path d="m2.6758-0.19727c-0.085772 0-0.15625 0.070478-0.15625 0.15625 0 0.085772 0.070478 0.15625 0.15625 0.15625s0.15625-0.070478 0.15625-0.15625c0-0.085772-0.070478-0.15625-0.15625-0.15625zm0 0.10742c0.027498 0 0.048828 0.02133 0.048828 0.048828 0 0.027498-0.02133 0.048828-0.048828 0.048828s-0.048828-0.02133-0.048828-0.048828c0-0.027498 0.02133-0.048828 0.048828-0.048828z" color="#000000" fill="#fff" style="-inkscape-stroke:none"/><path d="m2.7788-0.040964a0.10255 0.10255 0 0 1-0.10255 0.10255 0.10255 0.10255 0 0 1-0.10255-0.10255 0.10255 0.10255 0 0 1 0.10255-0.10255 0.10255 0.10255 0 0 1 0.10255 0.10255z" color="#000000" style="-inkscape-stroke:none"/></g><g transform="rotate(45)"><path d="m2.8125-1.2891c-0.085772 0-0.15625 0.070478-0.15625 0.15625s0.070478 0.15625 0.15625 0.15625 0.15625-0.070478 0.15625-0.15625c0-0.085772-0.070478-0.15625-0.15625-0.15625zm0 0.10742c0.027498 0 0.048828 0.02133 0.048828 0.048828s-0.02133 0.048828-0.048828 0.048828-0.048828-0.02133-0.048828-0.048828 0.02133-0.048828 0.048828-0.048828z" color="#000000" fill="#fff" style="-inkscape-stroke:none"/><path d="m2.9147-1.1327a0.10255 0.10255 0 0 1-0.10255 0.10255 0.10255 0.10255 0 0 1-0.10255-0.10255 0.10255 0.10255 0 0 1 0.10255-0.10255 0.10255 0.10255 0 0 1 0.10255 0.10255z" color="#000000" style="-inkscape-stroke:none"/></g><g transform="rotate(67.5)"><path d="m2.5195-2.3496c-0.085772 0-0.15625 0.070478-0.15625 0.15625s0.070478 0.15625 0.15625 0.15625 0.15625-0.070478 0.15625-0.15625-0.070478-0.15625-0.15625-0.15625zm0 0.10742c0.027498 0 0.048828 0.02133 0.048828 0.048828s-0.02133 0.048828-0.048828 0.048828-0.048828-0.02133-0.048828-0.048828 0.02133-0.048828 0.048828-0.048828z" color="#000000" fill="#fff" style="-inkscape-stroke:none"/><path d="m2.6225-2.1933a0.10255 0.10255 0 0 1-0.10255 0.10255 0.10255 0.10255 0 0 1-0.10255-0.10255 0.10255 0.10255 0 0 1 0.10255-0.10255 0.10255 0.10255 0 0 1 0.10255 0.10255z" color="#000000" style="-inkscape-stroke:none"/></g><g transform="rotate(90)"><path d="m1.8438-3.2188c-0.085772 0-0.15625 0.072431-0.15625 0.1582 0 0.085772 0.070478 0.15625 0.15625 0.15625s0.15625-0.070478 0.15625-0.15625c0-0.085772-0.070478-0.1582-0.15625-0.1582zm0 0.10938c0.027498 0 0.048828 0.02133 0.048828 0.048828s-0.02133 0.046875-0.048828 0.046875-0.048828-0.019377-0.048828-0.046875 0.02133-0.048828 0.048828-0.048828z" color="#000000" fill="#fff" style="-inkscape-stroke:none"/><path d="m1.9466-3.0614a0.10255 0.10255 0 0 1-0.10255 0.10255 0.10255 0.10255 0 0 1-0.10255-0.10255 0.10255 0.10255 0 0 1 0.10255-0.10255 0.10255 0.10255 0 0 1 0.10255 0.10255z" color="#000000" style="-inkscape-stroke:none"/></g><g transform="rotate(112.5)"><path d="m0.88672-3.7617c-0.085772 0-0.15625 0.070478-0.15625 0.15625s0.070478 0.1582 0.15625 0.1582 0.15625-0.072431 0.15625-0.1582c0-0.085772-0.070478-0.15625-0.15625-0.15625zm0 0.10938c0.027498 0 0.048828 0.019377 0.048828 0.046875s-0.02133 0.048828-0.048828 0.048828-0.048828-0.02133-0.048828-0.048828 0.02133-0.046875 0.048828-0.046875z" color="#000000" fill="#fff" style="-inkscape-stroke:none"/><path d="m0.99001-3.6047a0.10255 0.10255 0 0 1-0.10255 0.10255 0.10255 0.10255 0 0 1-0.10255-0.10255 0.10255 0.10255 0 0 1 0.10255-0.10255 0.10255 0.10255 0 0 1 0.10255 0.10255z" color="#000000" style="-inkscape-stroke:none"/></g><g transform="rotate(135)"><path d="m-0.20508-3.8965c-0.085772 0-0.15625 0.070478-0.15625 0.15625s0.070478 0.15625 0.15625 0.15625 0.1582-0.070478 0.1582-0.15625-0.072431-0.15625-0.1582-0.15625zm0 0.10742c0.027498 0 0.048828 0.02133 0.048828 0.048828s-0.02133 0.048828-0.048828 0.048828-0.046875-0.02133-0.046875-0.048828 0.019377-0.048828 0.046875-0.048828z" color="#000000" fill="#fff" style="-inkscape-stroke:none"/><path d="m-0.10171-3.7406a0.10255 0.10255 0 0 1-0.10255 0.10255 0.10255 0.10255 0 0 1-0.10255-0.10255 0.10255 0.10255 0 0 1 0.10255-0.10255 0.10255 0.10255 0 0 1 0.10255 0.10255z" color="#000000" style="-inkscape-stroke:none"/></g><g transform="rotate(157.5)"><path d="m-1.2656-3.6055c-0.085772 0-0.15625 0.070478-0.15625 0.15625s0.070478 0.1582 0.15625 0.1582 0.15625-0.072431 0.15625-0.1582c0-0.085772-0.070478-0.15625-0.15625-0.15625zm0 0.10938c0.027498 0 0.048828 0.019377 0.048828 0.046875s-0.02133 0.048828-0.048828 0.048828-0.048828-0.02133-0.048828-0.048828 0.02133-0.046875 0.048828-0.046875z" color="#000000" fill="#fff" style="-inkscape-stroke:none"/><path d="m-1.1623-3.4484a0.10255 0.10255 0 0 1-0.10255 0.10255 0.10255 0.10255 0 0 1-0.10255-0.10255 0.10255 0.10255 0 0 1 0.10255-0.10255 0.10255 0.10255 0 0 1 0.10255 0.10255z" color="#000000" style="-inkscape-stroke:none"/></g><g transform="scale(-1)"><path d="m-2.1328-2.9297c-0.085772 0-0.15625 0.070478-0.15625 0.15625s0.070478 0.1582 0.15625 0.1582 0.15625-0.072431 0.15625-0.1582c0-0.085772-0.070478-0.15625-0.15625-0.15625zm0 0.10938c0.027498 0 0.048828 0.019377 0.048828 0.046875s-0.02133 0.048828-0.048828 0.048828-0.048828-0.02133-0.048828-0.048828 0.02133-0.046875 0.048828-0.046875z" color="#000000" fill="#fff" style="-inkscape-stroke:none"/><path d="m-2.0304-2.7725a0.10255 0.10255 0 0 1-0.10255 0.10255 0.10255 0.10255 0 0 1-0.10255-0.10255 0.10255 0.10255 0 0 1 0.10255-0.10255 0.10255 0.10255 0 0 1 0.10255 0.10255z" color="#000000" style="-inkscape-stroke:none"/></g><g transform="rotate(202.5)"><path d="m-2.6758-1.9727c-0.085772 0-0.15625 0.070478-0.15625 0.15625s0.070478 0.15625 0.15625 0.15625 0.15625-0.070478 0.15625-0.15625-0.070478-0.15625-0.15625-0.15625zm0 0.10742c0.027498 0 0.048828 0.02133 0.048828 0.048828s-0.02133 0.048828-0.048828 0.048828-0.048828-0.02133-0.048828-0.048828 0.02133-0.048828 0.048828-0.048828z" color="#000000" fill="#fff" style="-inkscape-stroke:none"/><path d="m-2.5737-1.8159a0.10255 0.10255 0 0 1-0.10255 0.10255 0.10255 0.10255 0 0 1-0.10255-0.10255 0.10255 0.10255 0 0 1 0.10255-0.10255 0.10255 0.10255 0 0 1 0.10255 0.10255z" color="#000000" style="-inkscape-stroke:none"/></g><g transform="rotate(225)"><path d="m-2.8125-0.88086c-0.085772 0-0.15625 0.070478-0.15625 0.15625 0 0.085772 0.070478 0.15625 0.15625 0.15625s0.15625-0.070478 0.15625-0.15625-0.070478-0.15625-0.15625-0.15625zm0 0.10742c0.027498 0 0.048828 0.02133 0.048828 0.048828s-0.02133 0.048828-0.048828 0.048828-0.048828-0.02133-0.048828-0.048828 0.02133-0.048828 0.048828-0.048828z" color="#000000" fill="#fff" style="-inkscape-stroke:none"/><path d="m-2.7096-0.72417a0.10255 0.10255 0 0 1-0.10255 0.10255 0.10255 0.10255 0 0 1-0.10255-0.10255 0.10255 0.10255 0 0 1 0.10255-0.10255 0.10255 0.10255 0 0 1 0.10255 0.10255z" color="#000000" style="-inkscape-stroke:none"/></g><g transform="rotate(247.5)"><path d="m-2.5195 0.17969c-0.085772 0-0.15625 0.070478-0.15625 0.15625s0.070478 0.15625 0.15625 0.15625 0.15625-0.070478 0.15625-0.15625-0.070478-0.15625-0.15625-0.15625zm0 0.10742c0.027498 0 0.048828 0.02133 0.048828 0.048828s-0.02133 0.048828-0.048828 0.048828-0.048828-0.02133-0.048828-0.048828 0.02133-0.048828 0.048828-0.048828z" color="#000000" fill="#fff" style="-inkscape-stroke:none"/><path d="m-2.4174 0.33645a0.10255 0.10255 0 0 1-0.10255 0.10255 0.10255 0.10255 0 0 1-0.10255-0.10255 0.10255 0.10255 0 0 1 0.10255-0.10255 0.10255 0.10255 0 0 1 0.10255 0.10255z" color="#000000" style="-inkscape-stroke:none"/></g><g transform="rotate(-90)"><path d="m-1.8438 1.0488c-0.085772 0-0.15625 0.070478-0.15625 0.15625s0.070478 0.15625 0.15625 0.15625 0.15625-0.070478 0.15625-0.15625-0.070478-0.15625-0.15625-0.15625zm0 0.10742c0.027498 0 0.048828 0.02133 0.048828 0.048828s-0.02133 0.048828-0.048828 0.048828-0.048828-0.02133-0.048828-0.048828 0.02133-0.048828 0.048828-0.048828z" color="#000000" fill="#fff" style="-inkscape-stroke:none"/><path d="m-1.7415 1.2045a0.10255 0.10255 0 0 1-0.10255 0.10255 0.10255 0.10255 0 0 1-0.10255-0.10255 0.10255 0.10255 0 0 1 0.10255-0.10255 0.10255 0.10255 0 0 1 0.10255 0.10255z" color="#000000" style="-inkscape-stroke:none"/></g><g transform="rotate(-67.5)"><path d="m-0.88672 1.5918c-0.085772 0-0.15625 0.070478-0.15625 0.15625s0.070478 0.15625 0.15625 0.15625c0.085772 0 0.15625-0.070478 0.15625-0.15625s-0.070478-0.15625-0.15625-0.15625zm0 0.10742c0.027498 0 0.048828 0.02133 0.048828 0.048828s-0.02133 0.048828-0.048828 0.048828-0.048828-0.02133-0.048828-0.048828 0.02133-0.048828 0.048828-0.048828z" color="#000000" fill="#fff" style="-inkscape-stroke:none"/><path d="m-0.78491 1.7478a0.10255 0.10255 0 0 1-0.10255 0.10255 0.10255 0.10255 0 0 1-0.10255-0.10255 0.10255 0.10255 0 0 1 0.10255-0.10255 0.10255 0.10255 0 0 1 0.10255 0.10255z" color="#000000" style="-inkscape-stroke:none"/></g><g transform="rotate(-45)"><path d="m0.20508 1.7266c-0.085772 0-0.1582 0.070478-0.1582 0.15625s0.072431 0.1582 0.1582 0.1582c0.085772 0 0.15625-0.072431 0.15625-0.1582 0-0.085772-0.070478-0.15625-0.15625-0.15625zm0 0.10938c0.027498 0 0.046875 0.019377 0.046875 0.046875s-0.019377 0.048828-0.046875 0.048828-0.048828-0.02133-0.048828-0.048828 0.02133-0.046875 0.048828-0.046875z" color="#000000" fill="#fff" style="-inkscape-stroke:none"/><path d="m0.3068 1.8837a0.10255 0.10255 0 0 1-0.10255 0.10255 0.10255 0.10255 0 0 1-0.10255-0.10255 0.10255 0.10255 0 0 1 0.10255-0.10255 0.10255 0.10255 0 0 1 0.10255 0.10255z" color="#000000" style="-inkscape-stroke:none"/></g><g transform="rotate(-22.5)"><path d="m1.2656 1.4355c-0.085772 0-0.15625 0.070478-0.15625 0.15625s0.070478 0.15625 0.15625 0.15625 0.15625-0.070478 0.15625-0.15625-0.070478-0.15625-0.15625-0.15625zm0 0.10742c0.027498 0 0.048828 0.02133 0.048828 0.048828s-0.02133 0.048828-0.048828 0.048828-0.048828-0.02133-0.048828-0.048828 0.02133-0.048828 0.048828-0.048828z" color="#000000" fill="#fff" style="-inkscape-stroke:none"/><path d="m1.3674 1.5915a0.10255 0.10255 0 0 1-0.10255 0.10255 0.10255 0.10255 0 0 1-0.10255-0.10255 0.10255 0.10255 0 0 1 0.10255-0.10255 0.10255 0.10255 0 0 1 0.10255 0.10255z" color="#000000" style="-inkscape-stroke:none"/></g></g><g transform="rotate(9 2.2146 1.8441)"><path d="m2.1328 0.48438c-0.085772 0-0.15625 0.072431-0.15625 0.1582 0 0.085772 0.070478 0.15625 0.15625 0.15625s0.15625-0.070478 0.15625-0.15625-0.070478-0.1582-0.15625-0.1582zm0 0.10938c0.027498 0 0.048828 0.02133 0.048828 0.048828s-0.02133 0.046875-0.048828 0.046875-0.048828-0.019377-0.048828-0.046875 0.02133-0.048828 0.048828-0.048828z" color="#000000" fill="#fff" style="-inkscape-stroke:none"/><path d="m2.2355 0.64174a0.10255 0.10255 0 0 1-0.10255 0.10255 0.10255 0.10255 0 0 1-0.10255-0.10255 0.10255 0.10255 0 0 1 0.10255-0.10255 0.10255 0.10255 0 0 1 0.10255 0.10255z" color="#000000" style="-inkscape-stroke:none"/><g transform="rotate(18)"><path d="m2.5996-0.26367c-0.085772 0-0.15625 0.070478-0.15625 0.15625 0 0.085772 0.070478 0.15625 0.15625 0.15625s0.1582-0.070478 0.1582-0.15625c0-0.085772-0.072431-0.15625-0.1582-0.15625zm0 0.10742c0.027498 0 0.048828 0.02133 0.048828 0.048828 0 0.027498-0.02133 0.048828-0.048828 0.048828s-0.048828-0.02133-0.048828-0.048828c0-0.027498 0.02133-0.048828 0.048828-0.048828z" color="#000000" fill="#fff" style="-inkscape-stroke:none"/><path d="m2.7029-0.10794a0.10255 0.10255 0 0 1-0.10255 0.10255 0.10255 0.10255 0 0 1-0.10255-0.10255 0.10255 0.10255 0 0 1 0.10255-0.10255 0.10255 0.10255 0 0 1 0.10255 0.10255z" color="#000000" style="-inkscape-stroke:none"/></g><g transform="rotate(36)"><path d="m2.8125-1.1211c-0.085772 0-0.15625 0.070478-0.15625 0.15625 0 0.085772 0.070478 0.15625 0.15625 0.15625s0.1582-0.070478 0.1582-0.15625-0.072431-0.15625-0.1582-0.15625zm0 0.10742c0.027498 0 0.048828 0.02133 0.048828 0.048828s-0.02133 0.048828-0.048828 0.048828-0.046875-0.02133-0.046875-0.048828 0.019377-0.048828 0.046875-0.048828z" color="#000000" fill="#fff" style="-inkscape-stroke:none"/><path d="m2.9158-0.96538a0.10255 0.10255 0 0 1-0.10255 0.10255 0.10255 0.10255 0 0 1-0.10255-0.10255 0.10255 0.10255 0 0 1 0.10255-0.10255 0.10255 0.10255 0 0 1 0.10255 0.10255z" color="#000000" style="-inkscape-stroke:none"/></g><g transform="rotate(54)"><path d="m2.75-2.0039c-0.085772 0-0.15625 0.072431-0.15625 0.1582 0 0.085772 0.070478 0.15625 0.15625 0.15625s0.1582-0.070478 0.1582-0.15625-0.072431-0.1582-0.1582-0.1582zm0 0.10938c0.027498 0 0.048828 0.02133 0.048828 0.048828s-0.02133 0.046875-0.048828 0.046875-0.046875-0.019377-0.046875-0.046875 0.019377-0.048828 0.046875-0.048828z" color="#000000" fill="#fff" style="-inkscape-stroke:none"/><path d="m2.8534-1.8467a0.10255 0.10255 0 0 1-0.10255 0.10255 0.10255 0.10255 0 0 1-0.10255-0.10255 0.10255 0.10255 0 0 1 0.10255-0.10255 0.10255 0.10255 0 0 1 0.10255 0.10255z" color="#000000" style="-inkscape-stroke:none"/></g><g transform="rotate(72)"><path d="m2.4199-2.8223c-0.085772 0-0.1582 0.070478-0.1582 0.15625s0.072431 0.15625 0.1582 0.15625c0.085772 0 0.15625-0.070478 0.15625-0.15625s-0.070478-0.15625-0.15625-0.15625zm0 0.10742c0.027498 0 0.046875 0.02133 0.046875 0.048828s-0.019377 0.048828-0.046875 0.048828-0.048828-0.02133-0.048828-0.048828 0.02133-0.048828 0.048828-0.048828z" color="#000000" fill="#fff" style="-inkscape-stroke:none"/><path d="m2.5216-2.6655a0.10255 0.10255 0 0 1-0.10255 0.10255 0.10255 0.10255 0 0 1-0.10255-0.10255 0.10255 0.10255 0 0 1 0.10255-0.10255 0.10255 0.10255 0 0 1 0.10255 0.10255z" color="#000000" style="-inkscape-stroke:none"/></g><g transform="rotate(90)"><path d="m1.8496-3.498c-0.085772 0-0.15625 0.070478-0.15625 0.15625s0.070478 0.15625 0.15625 0.15625 0.1582-0.070478 0.1582-0.15625-0.072431-0.15625-0.1582-0.15625zm0 0.10742c0.027498 0 0.048828 0.02133 0.048828 0.048828s-0.02133 0.048828-0.048828 0.048828-0.046875-0.02133-0.046875-0.048828 0.019377-0.048828 0.046875-0.048828z" color="#000000" fill="#fff" style="-inkscape-stroke:none"/><path d="m1.9531-3.3417a0.10255 0.10255 0 0 1-0.10255 0.10255 0.10255 0.10255 0 0 1-0.10255-0.10255 0.10255 0.10255 0 0 1 0.10255-0.10255 0.10255 0.10255 0 0 1 0.10255 0.10255z" color="#000000" style="-inkscape-stroke:none"/></g><g transform="rotate(108)"><path d="m1.1016-3.9648c-0.085772 0-0.15625 0.070478-0.15625 0.15625s0.070478 0.15625 0.15625 0.15625c0.085772 0 0.15625-0.070478 0.15625-0.15625s-0.070478-0.15625-0.15625-0.15625zm0 0.10742c0.027498 0 0.048828 0.02133 0.048828 0.048828s-0.02133 0.048828-0.048828 0.048828-0.048828-0.02133-0.048828-0.048828 0.02133-0.048828 0.048828-0.048828z" color="#000000" fill="#fff" style="-inkscape-stroke:none"/><path d="m1.2034-3.8092a0.10255 0.10255 0 0 1-0.10255 0.10255 0.10255 0.10255 0 0 1-0.10255-0.10255 0.10255 0.10255 0 0 1 0.10255-0.10255 0.10255 0.10255 0 0 1 0.10255 0.10255z" color="#000000" style="-inkscape-stroke:none"/></g><g transform="rotate(126)"><path d="m0.24414-4.1777c-0.085772 0-0.15625 0.070478-0.15625 0.15625s0.070478 0.15625 0.15625 0.15625c0.085772 0 0.15625-0.070478 0.15625-0.15625 0-0.085772-0.070478-0.15625-0.15625-0.15625zm0 0.10742c0.027498 0 0.048828 0.02133 0.048828 0.048828s-0.02133 0.048828-0.048828 0.048828-0.048828-0.02133-0.048828-0.048828 0.02133-0.048828 0.048828-0.048828z" color="#000000" fill="#fff" style="-inkscape-stroke:none"/><path d="m0.34597-4.0221a0.10255 0.10255 0 0 1-0.10255 0.10255 0.10255 0.10255 0 0 1-0.10255-0.10255 0.10255 0.10255 0 0 1 0.10255-0.10255 0.10255 0.10255 0 0 1 0.10255 0.10255z" color="#000000" style="-inkscape-stroke:none"/></g><g transform="rotate(144)"><path d="m-0.63867-4.1152c-0.085772 0-0.15625 0.070478-0.15625 0.15625s0.070478 0.15625 0.15625 0.15625 0.1582-0.070478 0.1582-0.15625-0.072431-0.15625-0.1582-0.15625zm0 0.10742c0.027498 0 0.048828 0.02133 0.048828 0.048828s-0.02133 0.048828-0.048828 0.048828-0.046875-0.02133-0.046875-0.048828 0.019377-0.048828 0.046875-0.048828z" color="#000000" fill="#fff" style="-inkscape-stroke:none"/><path d="m-0.5353-3.9596a0.10255 0.10255 0 0 1-0.10255 0.10255 0.10255 0.10255 0 0 1-0.10255-0.10255 0.10255 0.10255 0 0 1 0.10255-0.10255 0.10255 0.10255 0 0 1 0.10255 0.10255z" color="#000000" style="-inkscape-stroke:none"/></g><g transform="rotate(162)"><path d="m-1.457-3.7852c-0.085772 0-0.15625 0.072431-0.15625 0.1582 0 0.085772 0.070478 0.15625 0.15625 0.15625s0.15625-0.070478 0.15625-0.15625-0.070478-0.1582-0.15625-0.1582zm0 0.10938c0.027498 0 0.048828 0.02133 0.048828 0.048828s-0.02133 0.046875-0.048828 0.046875-0.048828-0.019377-0.048828-0.046875 0.02133-0.048828 0.048828-0.048828z" color="#000000" fill="#fff" style="-inkscape-stroke:none"/><path d="m-1.3541-3.6279a0.10255 0.10255 0 0 1-0.10255 0.10255 0.10255 0.10255 0 0 1-0.10255-0.10255 0.10255 0.10255 0 0 1 0.10255-0.10255 0.10255 0.10255 0 0 1 0.10255 0.10255z" color="#000000" style="-inkscape-stroke:none"/></g><g transform="scale(-1)"><path d="m-2.1328-3.2148c-0.085772 0-0.15625 0.070478-0.15625 0.15625s0.070478 0.15625 0.15625 0.15625 0.15625-0.070478 0.15625-0.15625-0.070478-0.15625-0.15625-0.15625zm0 0.10742c0.027498 0 0.048828 0.02133 0.048828 0.048828s-0.02133 0.048828-0.048828 0.048828-0.048828-0.02133-0.048828-0.048828 0.02133-0.048828 0.048828-0.048828z" color="#000000" fill="#fff" style="-inkscape-stroke:none"/><path d="m-2.0304-3.0593a0.10255 0.10255 0 0 1-0.10255 0.10255 0.10255 0.10255 0 0 1-0.10255-0.10255 0.10255 0.10255 0 0 1 0.10255-0.10255 0.10255 0.10255 0 0 1 0.10255 0.10255z" color="#000000" style="-inkscape-stroke:none"/></g><g transform="rotate(198)"><path d="m-2.5996-2.4668c-0.085772 0-0.1582 0.070478-0.1582 0.15625s0.072431 0.1582 0.1582 0.1582c0.085772 0 0.15625-0.072431 0.15625-0.1582 0-0.085772-0.070478-0.15625-0.15625-0.15625zm0 0.10938c0.027498 0 0.048828 0.019377 0.048828 0.046875s-0.02133 0.048828-0.048828 0.048828-0.048828-0.02133-0.048828-0.048828 0.02133-0.046875 0.048828-0.046875z" color="#000000" fill="#fff" style="-inkscape-stroke:none"/><path d="m-2.4978-2.3097a0.10255 0.10255 0 0 1-0.10255 0.10255 0.10255 0.10255 0 0 1-0.10255-0.10255 0.10255 0.10255 0 0 1 0.10255-0.10255 0.10255 0.10255 0 0 1 0.10255 0.10255z" color="#000000" style="-inkscape-stroke:none"/></g><g transform="rotate(216)"><path d="m-2.8125-1.6094c-0.085772 0-0.1582 0.070478-0.1582 0.15625s0.072431 0.1582 0.1582 0.1582c0.085772 0 0.15625-0.072431 0.15625-0.1582 0-0.085772-0.070478-0.15625-0.15625-0.15625zm0 0.10938c0.027498 0 0.046875 0.019377 0.046875 0.046875s-0.019377 0.048828-0.046875 0.048828-0.048828-0.02133-0.048828-0.048828 0.02133-0.046875 0.048828-0.046875z" color="#000000" fill="#fff" style="-inkscape-stroke:none"/><path d="m-2.7107-1.4522a0.10255 0.10255 0 0 1-0.10255 0.10255 0.10255 0.10255 0 0 1-0.10255-0.10255 0.10255 0.10255 0 0 1 0.10255-0.10255 0.10255 0.10255 0 0 1 0.10255 0.10255z" color="#000000" style="-inkscape-stroke:none"/></g><g transform="rotate(234)"><path d="m-2.75-0.72656c-0.085772 0-0.1582 0.070478-0.1582 0.15625s0.072431 0.15625 0.1582 0.15625c0.085772 0 0.15625-0.070478 0.15625-0.15625s-0.070478-0.15625-0.15625-0.15625zm0 0.10742c0.027498 0 0.046875 0.02133 0.046875 0.048828s-0.019377 0.048828-0.046875 0.048828-0.048828-0.02133-0.048828-0.048828 0.02133-0.048828 0.048828-0.048828z" color="#000000" fill="#fff" style="-inkscape-stroke:none"/><path d="m-2.6483-0.57095a0.10255 0.10255 0 0 1-0.10255 0.10255 0.10255 0.10255 0 0 1-0.10255-0.10255 0.10255 0.10255 0 0 1 0.10255-0.10255 0.10255 0.10255 0 0 1 0.10255 0.10255z" color="#000000" style="-inkscape-stroke:none"/></g><g transform="rotate(252)"><path d="m-2.4199 0.091797c-0.085772 0-0.15625 0.070478-0.15625 0.15625 0 0.085772 0.070478 0.15625 0.15625 0.15625 0.085772 0 0.1582-0.070478 0.1582-0.15625s-0.072431-0.15625-0.1582-0.15625zm0 0.10742c0.027498 0 0.048828 0.02133 0.048828 0.048828s-0.02133 0.048828-0.048828 0.048828-0.046875-0.02133-0.046875-0.048828 0.019377-0.048828 0.046875-0.048828z" color="#000000" fill="#fff" style="-inkscape-stroke:none"/><path d="m-2.3165 0.24788a0.10255 0.10255 0 0 1-0.10255 0.10255 0.10255 0.10255 0 0 1-0.10255-0.10255 0.10255 0.10255 0 0 1 0.10255-0.10255 0.10255 0.10255 0 0 1 0.10255 0.10255z" color="#000000" style="-inkscape-stroke:none"/></g><g transform="rotate(-90)"><path d="m-1.8496 0.76758c-0.085772 0-0.1582 0.070478-0.1582 0.15625 0 0.085772 0.072431 0.15625 0.1582 0.15625 0.085772 0 0.15625-0.070478 0.15625-0.15625 0-0.085772-0.070478-0.15625-0.15625-0.15625zm0 0.10742c0.027498 0 0.046875 0.02133 0.046875 0.048828s-0.019377 0.048828-0.046875 0.048828-0.048828-0.02133-0.048828-0.048828 0.02133-0.048828 0.048828-0.048828z" color="#000000" fill="#fff" style="-inkscape-stroke:none"/><path d="m-1.748 0.92412a0.10255 0.10255 0 0 1-0.10255 0.10255 0.10255 0.10255 0 0 1-0.10255-0.10255 0.10255 0.10255 0 0 1 0.10255-0.10255 0.10255 0.10255 0 0 1 0.10255 0.10255z" color="#000000" style="-inkscape-stroke:none"/></g><g transform="rotate(-72)"><path d="m-1.1016 1.2344c-0.085772 0-0.15625 0.070478-0.15625 0.15625s0.070478 0.1582 0.15625 0.1582 0.15625-0.072431 0.15625-0.1582c0-0.085772-0.070478-0.15625-0.15625-0.15625zm0 0.10938c0.027498 0 0.048828 0.019377 0.048828 0.046875s-0.02133 0.048828-0.048828 0.048828-0.048828-0.02133-0.048828-0.048828 0.02133-0.046875 0.048828-0.046875z" color="#000000" fill="#fff" style="-inkscape-stroke:none"/><path d="m-0.99831 1.3916a0.10255 0.10255 0 0 1-0.10255 0.10255 0.10255 0.10255 0 0 1-0.10255-0.10255 0.10255 0.10255 0 0 1 0.10255-0.10255 0.10255 0.10255 0 0 1 0.10255 0.10255z" color="#000000" style="-inkscape-stroke:none"/></g><g transform="rotate(-54)"><path d="m-0.24414 1.4473c-0.085772 0-0.15625 0.070478-0.15625 0.15625 0 0.085772 0.070478 0.1582 0.15625 0.1582s0.15625-0.072431 0.15625-0.1582c0-0.085772-0.070478-0.15625-0.15625-0.15625zm0 0.10938c0.027498 0 0.048828 0.019377 0.048828 0.046875s-0.02133 0.048828-0.048828 0.048828-0.048828-0.02133-0.048828-0.048828 0.02133-0.046875 0.048828-0.046875z" color="#000000" fill="#fff" style="-inkscape-stroke:none"/><path d="m-0.14087 1.6045a0.10255 0.10255 0 0 1-0.10255 0.10255 0.10255 0.10255 0 0 1-0.10255-0.10255 0.10255 0.10255 0 0 1 0.10255-0.10255 0.10255 0.10255 0 0 1 0.10255 0.10255z" color="#000000" style="-inkscape-stroke:none"/></g><g transform="rotate(-36)"><path d="m0.63867 1.3848c-0.085772 0-0.1582 0.072431-0.1582 0.1582 0 0.085772 0.072431 0.15625 0.1582 0.15625 0.085772 0 0.15625-0.070478 0.15625-0.15625s-0.070478-0.1582-0.15625-0.1582zm0 0.10938c0.027498 0 0.046875 0.02133 0.046875 0.048828s-0.019377 0.046875-0.046875 0.046875-0.048828-0.019377-0.048828-0.046875 0.02133-0.048828 0.048828-0.048828z" color="#000000" fill="#fff" style="-inkscape-stroke:none"/><path d="m0.7404 1.542a0.10255 0.10255 0 0 1-0.10255 0.10255 0.10255 0.10255 0 0 1-0.10255-0.10255 0.10255 0.10255 0 0 1 0.10255-0.10255 0.10255 0.10255 0 0 1 0.10255 0.10255z" color="#000000" style="-inkscape-stroke:none"/></g><g transform="rotate(-18)"><path d="m1.457 1.0547c-0.085772 0-0.15625 0.070478-0.15625 0.15625s0.070478 0.15625 0.15625 0.15625 0.15625-0.070478 0.15625-0.15625c0-0.085772-0.070478-0.15625-0.15625-0.15625zm0 0.10742c0.027498 0 0.048828 0.02133 0.048828 0.048828s-0.02133 0.048828-0.048828 0.048828-0.048828-0.02133-0.048828-0.048828 0.02133-0.048828 0.048828-0.048828z" color="#000000" fill="#fff" style="-inkscape-stroke:none"/><path d="m1.5592 1.2103a0.10255 0.10255 0 0 1-0.10255 0.10255 0.10255 0.10255 0 0 1-0.10255-0.10255 0.10255 0.10255 0 0 1 0.10255-0.10255 0.10255 0.10255 0 0 1 0.10255 0.10255z" color="#000000" style="-inkscape-stroke:none"/></g></g><g transform="rotate(7.5 2.1329 1.8377)"><path d="m2.1328 0.21094c-0.085772 0-0.15625 0.070478-0.15625 0.15625s0.070478 0.15625 0.15625 0.15625 0.15625-0.070478 0.15625-0.15625-0.070478-0.15625-0.15625-0.15625zm0 0.10742c0.027498 0 0.048828 0.02133 0.048828 0.048828s-0.02133 0.048828-0.048828 0.048828-0.048828-0.02133-0.048828-0.048828 0.02133-0.048828 0.048828-0.048828z" color="#000000" fill="#fff" style="-inkscape-stroke:none"/><path d="m2.2355 0.36784a0.10255 0.10255 0 0 1-0.10255 0.10255 0.10255 0.10255 0 0 1-0.10255-0.10255 0.10255 0.10255 0 0 1 0.10255-0.10255 0.10255 0.10255 0 0 1 0.10255 0.10255z" color="#000000" style="-inkscape-stroke:none"/><path d="m2.1328 0.21094c-0.085772 0-0.15625 0.070478-0.15625 0.15625s0.070478 0.15625 0.15625 0.15625 0.15625-0.070478 0.15625-0.15625-0.070478-0.15625-0.15625-0.15625zm0 0.10742c0.027498 0 0.048828 0.02133 0.048828 0.048828s-0.02133 0.048828-0.048828 0.048828-0.048828-0.02133-0.048828-0.048828 0.02133-0.048828 0.048828-0.048828z" color="#000000" fill="#fff" style="-inkscape-stroke:none"/><path d="m2.2355 0.36784a0.10255 0.10255 0 0 1-0.10255 0.10255 0.10255 0.10255 0 0 1-0.10255-0.10255 0.10255 0.10255 0 0 1 0.10255-0.10255 0.10255 0.10255 0 0 1 0.10255 0.10255z" color="#000000" style="-inkscape-stroke:none"/><g transform="rotate(15)"><path d="m2.5352-0.40234c-0.085772 0-0.15625 0.070478-0.15625 0.15625s0.070478 0.15625 0.15625 0.15625 0.15625-0.070478 0.15625-0.15625c0-0.085772-0.070478-0.15625-0.15625-0.15625zm0 0.10742c0.027498 0 0.048828 0.02133 0.048828 0.048828s-0.02133 0.048828-0.048828 0.048828-0.048828-0.02133-0.048828-0.048828 0.02133-0.048828 0.048828-0.048828z" color="#000000" fill="#fff" style="-inkscape-stroke:none"/><path d="m2.6384-0.24682a0.10255 0.10255 0 0 1-0.10255 0.10255 0.10255 0.10255 0 0 1-0.10255-0.10255 0.10255 0.10255 0 0 1 0.10255-0.10255 0.10255 0.10255 0 0 1 0.10255 0.10255z" color="#000000" style="-inkscape-stroke:none"/></g><g transform="rotate(30)"><path d="m2.7656-1.1016c-0.085772 0-0.15625 0.070478-0.15625 0.15625 0 0.085772 0.070478 0.15625 0.15625 0.15625s0.15625-0.070478 0.15625-0.15625-0.070478-0.15625-0.15625-0.15625zm0 0.10742c0.027498 0 0.048828 0.02133 0.048828 0.048828s-0.02133 0.048828-0.048828 0.048828-0.048828-0.02133-0.048828-0.048828 0.02133-0.048828 0.048828-0.048828z" color="#000000" fill="#fff" style="-inkscape-stroke:none"/><path d="m2.8686-0.94483a0.10255 0.10255 0 0 1-0.10255 0.10255 0.10255 0.10255 0 0 1-0.10255-0.10255 0.10255 0.10255 0 0 1 0.10255-0.10255 0.10255 0.10255 0 0 1 0.10255 0.10255z" color="#000000" style="-inkscape-stroke:none"/></g><g transform="rotate(45)"><path d="m2.8086-1.8359c-0.085772 0-0.1582 0.072431-0.1582 0.1582 0 0.085772 0.072431 0.15625 0.1582 0.15625 0.085772 0 0.15625-0.070478 0.15625-0.15625s-0.070478-0.1582-0.15625-0.1582zm0 0.10938c0.027498 0 0.046875 0.02133 0.046875 0.048828s-0.019377 0.046875-0.046875 0.046875-0.048828-0.019377-0.048828-0.046875 0.02133-0.048828 0.048828-0.048828z" color="#000000" fill="#fff" style="-inkscape-stroke:none"/><path d="m2.9102-1.6786a0.10255 0.10255 0 0 1-0.10255 0.10255 0.10255 0.10255 0 0 1-0.10255-0.10255 0.10255 0.10255 0 0 1 0.10255-0.10255 0.10255 0.10255 0 0 1 0.10255 0.10255z" color="#000000" style="-inkscape-stroke:none"/></g><g transform="rotate(60)"><path d="m2.6582-2.5547c-0.085772 0-0.15625 0.070478-0.15625 0.15625s0.070478 0.15625 0.15625 0.15625 0.15625-0.070478 0.15625-0.15625-0.070478-0.15625-0.15625-0.15625zm0 0.10742c0.027498 0 0.048828 0.02133 0.048828 0.048828s-0.02133 0.048828-0.048828 0.048828-0.048828-0.02133-0.048828-0.048828 0.02133-0.048828 0.048828-0.048828z" color="#000000" fill="#fff" style="-inkscape-stroke:none"/><path d="m2.7605-2.3982a0.10255 0.10255 0 0 1-0.10255 0.10255 0.10255 0.10255 0 0 1-0.10255-0.10255 0.10255 0.10255 0 0 1 0.10255-0.10255 0.10255 0.10255 0 0 1 0.10255 0.10255z" color="#000000" style="-inkscape-stroke:none"/></g><g transform="rotate(75)"><path d="m2.3262-3.2109c-0.085772 0-0.15625 0.070478-0.15625 0.15625s0.070478 0.15625 0.15625 0.15625 0.1582-0.070478 0.1582-0.15625-0.072431-0.15625-0.1582-0.15625zm0 0.10742c0.027498 0 0.048828 0.02133 0.048828 0.048828s-0.02133 0.048828-0.048828 0.048828-0.046875-0.02133-0.046875-0.048828 0.019377-0.048828 0.046875-0.048828z" color="#000000" fill="#fff" style="-inkscape-stroke:none"/><path d="m2.4297-3.0545a0.10255 0.10255 0 0 1-0.10255 0.10255 0.10255 0.10255 0 0 1-0.10255-0.10255 0.10255 0.10255 0 0 1 0.10255-0.10255 0.10255 0.10255 0 0 1 0.10255 0.10255z" color="#000000" style="-inkscape-stroke:none"/></g><g transform="rotate(90)"><path d="m1.8379-3.7598c-0.085772 0-0.15625 0.070478-0.15625 0.15625s0.070478 0.15625 0.15625 0.15625 0.15625-0.070478 0.15625-0.15625-0.070478-0.15625-0.15625-0.15625zm0 0.10742c0.027498 0 0.048828 0.02133 0.048828 0.048828s-0.02133 0.048828-0.048828 0.048828-0.048828-0.02133-0.048828-0.048828 0.02133-0.048828 0.048828-0.048828z" color="#000000" fill="#fff" style="-inkscape-stroke:none"/><path d="m1.9402-3.6028a0.10255 0.10255 0 0 1-0.10255 0.10255 0.10255 0.10255 0 0 1-0.10255-0.10255 0.10255 0.10255 0 0 1 0.10255-0.10255 0.10255 0.10255 0 0 1 0.10255 0.10255z" color="#000000" style="-inkscape-stroke:none"/></g><g transform="rotate(105)"><path d="m1.2227-4.1621c-0.085772 0-0.15625 0.070478-0.15625 0.15625 0 0.085772 0.070478 0.15625 0.15625 0.15625s0.15625-0.070478 0.15625-0.15625-0.070478-0.15625-0.15625-0.15625zm0 0.10742c0.027498 0 0.048828 0.02133 0.048828 0.048828s-0.02133 0.048828-0.048828 0.048828-0.048828-0.02133-0.048828-0.048828 0.02133-0.048828 0.048828-0.048828z" color="#000000" fill="#fff" style="-inkscape-stroke:none"/><path d="m1.3256-4.0057a0.10255 0.10255 0 0 1-0.10255 0.10255 0.10255 0.10255 0 0 1-0.10255-0.10255 0.10255 0.10255 0 0 1 0.10255-0.10255 0.10255 0.10255 0 0 1 0.10255 0.10255z" color="#000000" style="-inkscape-stroke:none"/></g><g transform="rotate(120)"><path d="m0.52539-4.3926c-0.085772 0-0.15625 0.070478-0.15625 0.15625s0.070478 0.15625 0.15625 0.15625c0.085772 0 0.15625-0.070478 0.15625-0.15625s-0.070478-0.15625-0.15625-0.15625zm0 0.10742c0.027498 0 0.048828 0.02133 0.048828 0.048828s-0.02133 0.048828-0.048828 0.048828-0.048828-0.02133-0.048828-0.048828 0.02133-0.048828 0.048828-0.048828z" color="#000000" fill="#fff" style="-inkscape-stroke:none"/><path d="m0.62757-4.2359a0.10255 0.10255 0 0 1-0.10255 0.10255 0.10255 0.10255 0 0 1-0.10255-0.10255 0.10255 0.10255 0 0 1 0.10255-0.10255 0.10255 0.10255 0 0 1 0.10255 0.10255z" color="#000000" style="-inkscape-stroke:none"/></g><g transform="rotate(135)"><path d="m-0.20898-4.4336c-0.085772 0-0.15625 0.070478-0.15625 0.15625s0.070478 0.15625 0.15625 0.15625c0.085772 0 0.15625-0.070478 0.15625-0.15625s-0.070478-0.15625-0.15625-0.15625zm0 0.10742c0.027498 0 0.048828 0.02133 0.048828 0.048828s-0.02133 0.048828-0.048828 0.048828-0.048828-0.02133-0.048828-0.048828 0.02133-0.048828 0.048828-0.048828z" color="#000000" fill="#fff" style="-inkscape-stroke:none"/><path d="m-0.10622-4.2775a0.10255 0.10255 0 0 1-0.10255 0.10255 0.10255 0.10255 0 0 1-0.10255-0.10255 0.10255 0.10255 0 0 1 0.10255-0.10255 0.10255 0.10255 0 0 1 0.10255 0.10255z" color="#000000" style="-inkscape-stroke:none"/></g><g transform="rotate(150)"><path d="m-0.92773-4.2852c-0.085772 0-0.15625 0.072431-0.15625 0.1582 0 0.085772 0.070478 0.15625 0.15625 0.15625 0.085772 0 0.15625-0.070478 0.15625-0.15625 0-0.085772-0.070478-0.1582-0.15625-0.1582zm0 0.10938c0.027498 0 0.048828 0.02133 0.048828 0.048828s-0.02133 0.046875-0.048828 0.046875-0.048828-0.019377-0.048828-0.046875 0.02133-0.048828 0.048828-0.048828z" color="#000000" fill="#fff" style="-inkscape-stroke:none"/><path d="m-0.82578-4.1278a0.10255 0.10255 0 0 1-0.10255 0.10255 0.10255 0.10255 0 0 1-0.10255-0.10255 0.10255 0.10255 0 0 1 0.10255-0.10255 0.10255 0.10255 0 0 1 0.10255 0.10255z" color="#000000" style="-inkscape-stroke:none"/></g><g transform="rotate(165)"><path d="m-1.584-3.9531c-0.085772 0-0.15625 0.070478-0.15625 0.15625s0.070478 0.15625 0.15625 0.15625 0.15625-0.070478 0.15625-0.15625-0.070478-0.15625-0.15625-0.15625zm0 0.10742c0.027498 0 0.048828 0.02133 0.048828 0.048828s-0.02133 0.048828-0.048828 0.048828-0.048828-0.02133-0.048828-0.048828 0.02133-0.048828 0.048828-0.048828z" color="#000000" fill="#fff" style="-inkscape-stroke:none"/><path d="m-1.4821-3.797a0.10255 0.10255 0 0 1-0.10255 0.10255 0.10255 0.10255 0 0 1-0.10255-0.10255 0.10255 0.10255 0 0 1 0.10255-0.10255 0.10255 0.10255 0 0 1 0.10255 0.10255z" color="#000000" style="-inkscape-stroke:none"/></g><g transform="scale(-1)"><path d="m-2.1328-3.4648c-0.085772 0-0.15625 0.072431-0.15625 0.1582 0 0.085772 0.070478 0.15625 0.15625 0.15625s0.15625-0.070478 0.15625-0.15625-0.070478-0.1582-0.15625-0.1582zm0 0.10938c0.027498 0 0.048828 0.02133 0.048828 0.048828s-0.02133 0.046875-0.048828 0.046875-0.048828-0.019377-0.048828-0.046875 0.02133-0.048828 0.048828-0.048828z" color="#000000" fill="#fff" style="-inkscape-stroke:none"/><path d="m-2.0304-3.3075a0.10255 0.10255 0 0 1-0.10255 0.10255 0.10255 0.10255 0 0 1-0.10255-0.10255 0.10255 0.10255 0 0 1 0.10255-0.10255 0.10255 0.10255 0 0 1 0.10255 0.10255z" color="#000000" style="-inkscape-stroke:none"/></g><g transform="rotate(195)"><path d="m-2.5352-2.8496c-0.085772 0-0.15625 0.070478-0.15625 0.15625s0.070478 0.15625 0.15625 0.15625 0.15625-0.070478 0.15625-0.15625-0.070478-0.15625-0.15625-0.15625zm0 0.10742c0.027498 0 0.048828 0.02133 0.048828 0.048828s-0.02133 0.048828-0.048828 0.048828-0.048828-0.02133-0.048828-0.048828 0.02133-0.048828 0.048828-0.048828z" color="#000000" fill="#fff" style="-inkscape-stroke:none"/><path d="m-2.4333-2.6929a0.10255 0.10255 0 0 1-0.10255 0.10255 0.10255 0.10255 0 0 1-0.10255-0.10255 0.10255 0.10255 0 0 1 0.10255-0.10255 0.10255 0.10255 0 0 1 0.10255 0.10255z" color="#000000" style="-inkscape-stroke:none"/></g><g transform="rotate(210)"><path d="m-2.7656-2.1504c-0.085772 0-0.15625 0.070478-0.15625 0.15625s0.070478 0.15625 0.15625 0.15625 0.15625-0.070478 0.15625-0.15625-0.070478-0.15625-0.15625-0.15625zm0 0.10742c0.027498 0 0.048828 0.02133 0.048828 0.048828s-0.02133 0.048828-0.048828 0.048828-0.048828-0.02133-0.048828-0.048828 0.02133-0.048828 0.048828-0.048828z" color="#000000" fill="#fff" style="-inkscape-stroke:none"/><path d="m-2.6635-1.9949a0.10255 0.10255 0 0 1-0.10255 0.10255 0.10255 0.10255 0 0 1-0.10255-0.10255 0.10255 0.10255 0 0 1 0.10255-0.10255 0.10255 0.10255 0 0 1 0.10255 0.10255z" color="#000000" style="-inkscape-stroke:none"/></g><g transform="rotate(225)"><path d="m-2.8086-1.418c-0.085772 0-0.15625 0.070478-0.15625 0.15625s0.070478 0.15625 0.15625 0.15625 0.1582-0.070478 0.1582-0.15625-0.072431-0.15625-0.1582-0.15625zm0 0.10742c0.027498 0 0.048828 0.02133 0.048828 0.048828s-0.02133 0.048828-0.048828 0.048828-0.046875-0.02133-0.046875-0.048828 0.019377-0.048828 0.046875-0.048828z" color="#000000" fill="#fff" style="-inkscape-stroke:none"/><path d="m-2.7051-1.2611a0.10255 0.10255 0 0 1-0.10255 0.10255 0.10255 0.10255 0 0 1-0.10255-0.10255 0.10255 0.10255 0 0 1 0.10255-0.10255 0.10255 0.10255 0 0 1 0.10255 0.10255z" color="#000000" style="-inkscape-stroke:none"/></g><g transform="rotate(240)"><path d="m-2.6582-0.69727c-0.085772 0-0.15625 0.070478-0.15625 0.15625s0.070478 0.15625 0.15625 0.15625 0.15625-0.070478 0.15625-0.15625c0-0.085772-0.070478-0.15625-0.15625-0.15625zm0 0.10742c0.027498 0 0.048828 0.02133 0.048828 0.048828s-0.02133 0.048828-0.048828 0.048828-0.048828-0.02133-0.048828-0.048828 0.02133-0.048828 0.048828-0.048828z" color="#000000" fill="#fff" style="-inkscape-stroke:none"/><path d="m-2.5554-0.54152a0.10255 0.10255 0 0 1-0.10255 0.10255 0.10255 0.10255 0 0 1-0.10255-0.10255 0.10255 0.10255 0 0 1 0.10255-0.10255 0.10255 0.10255 0 0 1 0.10255 0.10255z" color="#000000" style="-inkscape-stroke:none"/></g><g transform="rotate(255)"><path d="m-2.3262-0.041016c-0.085772 0-0.1582 0.070478-0.1582 0.15625 0 0.085772 0.072431 0.15625 0.1582 0.15625 0.085772 0 0.15625-0.070478 0.15625-0.15625 0-0.085772-0.070478-0.15625-0.15625-0.15625zm0 0.10742c0.027498 0 0.046875 0.02133 0.046875 0.048828 0 0.027498-0.019377 0.048828-0.046875 0.048828s-0.048828-0.02133-0.048828-0.048828c0-0.027498 0.02133-0.048828 0.048828-0.048828z" color="#000000" fill="#fff" style="-inkscape-stroke:none"/><path d="m-2.2246 0.11477a0.10255 0.10255 0 0 1-0.10255 0.10255 0.10255 0.10255 0 0 1-0.10255-0.10255 0.10255 0.10255 0 0 1 0.10255-0.10255 0.10255 0.10255 0 0 1 0.10255 0.10255z" color="#000000" style="-inkscape-stroke:none"/></g><g transform="rotate(-90)"><path d="m-1.8379 0.50586c-0.085772 0-0.15625 0.070478-0.15625 0.15625s0.070478 0.1582 0.15625 0.1582 0.15625-0.072431 0.15625-0.1582c0-0.085772-0.070478-0.15625-0.15625-0.15625zm0 0.10938c0.027498 0 0.048828 0.019377 0.048828 0.046875s-0.02133 0.048828-0.048828 0.048828-0.048828-0.02133-0.048828-0.048828 0.02133-0.046875 0.048828-0.046875z" color="#000000" fill="#fff" style="-inkscape-stroke:none"/><path d="m-1.7351 0.66308a0.10255 0.10255 0 0 1-0.10255 0.10255 0.10255 0.10255 0 0 1-0.10255-0.10255 0.10255 0.10255 0 0 1 0.10255-0.10255 0.10255 0.10255 0 0 1 0.10255 0.10255z" color="#000000" style="-inkscape-stroke:none"/></g><g transform="rotate(-75)"><path d="m-1.2227 0.91016c-0.085772 0-0.15625 0.070478-0.15625 0.15625 0 0.085772 0.070478 0.15625 0.15625 0.15625s0.15625-0.070478 0.15625-0.15625c0-0.085772-0.070478-0.15625-0.15625-0.15625zm0 0.10742c0.027498 0 0.048828 0.02133 0.048828 0.048828s-0.02133 0.048828-0.048828 0.048828-0.048828-0.02133-0.048828-0.048828 0.02133-0.048828 0.048828-0.048828z" color="#000000" fill="#fff" style="-inkscape-stroke:none"/><path d="m-1.1205 1.066a0.10255 0.10255 0 0 1-0.10255 0.10255 0.10255 0.10255 0 0 1-0.10255-0.10255 0.10255 0.10255 0 0 1 0.10255-0.10255 0.10255 0.10255 0 0 1 0.10255 0.10255z" color="#000000" style="-inkscape-stroke:none"/></g><g transform="rotate(-60)"><path d="m-0.52539 1.1406c-0.085772 0-0.15625 0.070478-0.15625 0.15625s0.070478 0.15625 0.15625 0.15625 0.15625-0.070478 0.15625-0.15625-0.070478-0.15625-0.15625-0.15625zm0 0.10742c0.027498 0 0.048828 0.02133 0.048828 0.048828s-0.02133 0.048828-0.048828 0.048828-0.048828-0.02133-0.048828-0.048828 0.02133-0.048828 0.048828-0.048828z" color="#000000" fill="#fff" style="-inkscape-stroke:none"/><path d="m-0.42247 1.2962a0.10255 0.10255 0 0 1-0.10255 0.10255 0.10255 0.10255 0 0 1-0.10255-0.10255 0.10255 0.10255 0 0 1 0.10255-0.10255 0.10255 0.10255 0 0 1 0.10255 0.10255z" color="#000000" style="-inkscape-stroke:none"/></g><g transform="rotate(-45)"><path d="m0.20898 1.1816c-0.085772 0-0.15625 0.070478-0.15625 0.15625s0.070478 0.15625 0.15625 0.15625c0.085772 0 0.15625-0.070478 0.15625-0.15625s-0.070478-0.15625-0.15625-0.15625zm0 0.10742c0.027498 0 0.048828 0.02133 0.048828 0.048828s-0.02133 0.048828-0.048828 0.048828-0.048828-0.02133-0.048828-0.048828 0.02133-0.048828 0.048828-0.048828z" color="#000000" fill="#fff" style="-inkscape-stroke:none"/><path d="m0.31131 1.3378a0.10255 0.10255 0 0 1-0.10255 0.10255 0.10255 0.10255 0 0 1-0.10255-0.10255 0.10255 0.10255 0 0 1 0.10255-0.10255 0.10255 0.10255 0 0 1 0.10255 0.10255z" color="#000000" style="-inkscape-stroke:none"/></g><g transform="rotate(-30)"><path d="m0.92773 1.0312c-0.085772 0-0.15625 0.070478-0.15625 0.15625 0 0.085772 0.070478 0.15625 0.15625 0.15625 0.085772 0 0.15625-0.070478 0.15625-0.15625s-0.070478-0.15625-0.15625-0.15625zm0 0.10742c0.027498 0 0.048828 0.02133 0.048828 0.048828s-0.02133 0.048828-0.048828 0.048828-0.048828-0.02133-0.048828-0.048828 0.02133-0.048828 0.048828-0.048828z" color="#000000" fill="#fff" style="-inkscape-stroke:none"/><path d="m1.0309 1.1881a0.10255 0.10255 0 0 1-0.10255 0.10255 0.10255 0.10255 0 0 1-0.10255-0.10255 0.10255 0.10255 0 0 1 0.10255-0.10255 0.10255 0.10255 0 0 1 0.10255 0.10255z" color="#000000" style="-inkscape-stroke:none"/></g><g transform="rotate(-15)"><path d="m1.584 0.70117c-0.085772 0-0.15625 0.070478-0.15625 0.15625 0 0.085772 0.070478 0.15625 0.15625 0.15625s0.15625-0.070478 0.15625-0.15625c0-0.085772-0.070478-0.15625-0.15625-0.15625zm0 0.10742c0.027498 0 0.048828 0.02133 0.048828 0.048828s-0.02133 0.048828-0.048828 0.048828-0.048828-0.02133-0.048828-0.048828 0.02133-0.048828 0.048828-0.048828z" color="#000000" fill="#fff" style="-inkscape-stroke:none"/><path d="m1.6872 0.85726a0.10255 0.10255 0 0 1-0.10255 0.10255 0.10255 0.10255 0 0 1-0.10255-0.10255 0.10255 0.10255 0 0 1 0.10255-0.10255 0.10255 0.10255 0 0 1 0.10255 0.10255z" color="#000000" style="-inkscape-stroke:none"/></g></g></g><path d="m2.1328 1.2773c-0.30776 1e-7 -0.55859 0.25304-0.55859 0.56055 0 0.30751 0.25108 0.55859 0.55859 0.55859s0.56055-0.25083 0.56055-0.55859c0-0.30776-0.25279-0.56055-0.56055-0.56055zm0 0.17578c0.21349 0 0.38477 0.17127 0.38477 0.38477 0 0.21349-0.17098 0.38281-0.38477 0.38281s-0.38477-0.16932-0.38477-0.38281c0-0.21349 0.17127-0.38477 0.38477-0.38477z" color="#000000" fill="#fff" style="-inkscape-stroke:none"/><path d="m2.1328 1.332c-0.2784 0-0.50391 0.22746-0.50391 0.50586 0 0.2784 0.22551 0.50391 0.50391 0.50391s0.50586-0.22551 0.50586-0.50391c0-0.2784-0.22746-0.50586-0.50586-0.50586zm0 0.066406c0.24265 0 0.43945 0.19681 0.43945 0.43945 0 0.24265-0.19681 0.4375-0.43945 0.4375s-0.43945-0.19485-0.43945-0.4375c0-0.24265 0.19681-0.43945 0.43945-0.43945z" color="#000000" style="-inkscape-stroke:none"/></g></svg>
